# Blender v2.74 (sub 0) OBJ File: ''
# www.blender.org
mtllib floating-island-template.mtl
o Box
v 0.000000 -0.022878 0.000000
v 0.000000 -0.054545 0.409722
v 0.000000 -0.173836 0.352395
v 0.000000 -0.556487 0.088941
v 0.000000 -0.026420 0.175347
v 0.000000 -0.354980 0.210015
v 0.000000 -0.036993 0.321615
v 0.000000 -0.075587 0.439236
v 0.000000 -0.588520 0.000000
v 0.254630 -0.045031 0.254630
v 0.166274 -0.311239 0.166274
v 0.439236 -0.075587 0.000000
v 0.321615 -0.075587 0.321615
v 0.210015 -0.354980 -0.000000
v 0.321615 -0.036993 0.000000
v 0.328504 -0.163383 0.140361
v 0.381944 -0.056003 0.163194
v 0.163194 -0.029753 0.163194
v 0.082777 -0.545715 0.082777
v 0.140361 -0.163383 0.328504
v 0.163194 -0.056003 0.381944
v 0.409722 -0.075587 0.175347
v 0.257577 -0.152931 0.257577
v 0.195561 -0.340526 0.098631
v 0.352395 -0.173836 -0.000000
v 0.409722 -0.054545 0.000000
v 0.299479 -0.039649 0.151042
v 0.299479 -0.057462 0.299479
v 0.151042 -0.039649 0.299479
v 0.175347 -0.026420 0.000000
v 0.088941 -0.559805 0.000000
v 0.098631 -0.340526 0.195561
v 0.175347 -0.075587 0.409722
v -0.254630 -0.045031 0.254630
v -0.166274 -0.311239 0.166274
v -0.439236 -0.075587 0.000000
v -0.321615 -0.075587 0.321615
v -0.210015 -0.354980 -0.000000
v -0.321615 -0.036993 0.000000
v -0.328504 -0.163383 0.140361
v -0.381944 -0.056003 0.163194
v -0.163194 -0.029753 0.163194
v -0.082777 -0.545715 0.082777
v -0.140361 -0.163383 0.328504
v -0.163194 -0.056003 0.381944
v -0.409722 -0.075587 0.175347
v -0.257577 -0.152931 0.257577
v -0.195561 -0.340526 0.098631
v -0.352395 -0.173836 -0.000000
v -0.409722 -0.054545 0.000000
v -0.299479 -0.039649 0.151042
v -0.299479 -0.057462 0.299479
v -0.151042 -0.039649 0.299479
v -0.175347 -0.026420 0.000000
v -0.088941 -0.559805 0.000000
v -0.098631 -0.340526 0.195561
v -0.175347 -0.075587 0.409722
v 0.000000 -0.054545 -0.409722
v 0.000000 -0.173836 -0.352395
v 0.000000 -0.556487 -0.088941
v 0.000000 -0.026420 -0.175347
v 0.000000 -0.354980 -0.210015
v 0.000000 -0.036993 -0.321615
v 0.000000 -0.075587 -0.439236
v 0.000000 -0.588520 -0.000000
v 0.254630 -0.045031 -0.254630
v 0.166274 -0.311239 -0.166274
v 0.439236 -0.075587 0.000000
v 0.321615 -0.075587 -0.321615
v 0.210015 -0.354980 0.000000
v 0.321615 -0.036993 0.000000
v 0.328504 -0.163383 -0.140361
v 0.381944 -0.056003 -0.163194
v 0.163194 -0.029753 -0.163194
v 0.082777 -0.545715 -0.082777
v 0.140361 -0.163383 -0.328504
v 0.163194 -0.056003 -0.381944
v 0.409722 -0.075587 -0.175347
v 0.257577 -0.152931 -0.257577
v 0.195561 -0.340526 -0.098631
v 0.352395 -0.173836 0.000000
v 0.409722 -0.054545 0.000000
v 0.299479 -0.039649 -0.151042
v 0.299479 -0.057462 -0.299479
v 0.151042 -0.039649 -0.299479
v 0.175347 -0.026420 0.000000
v 0.088941 -0.559805 0.000000
v 0.098631 -0.340526 -0.195561
v 0.175347 -0.075587 -0.409722
v -0.254630 -0.045031 -0.254630
v -0.166274 -0.311239 -0.166274
v -0.439236 -0.075587 -0.000000
v -0.321615 -0.075587 -0.321615
v -0.210015 -0.354980 -0.000000
v -0.321615 -0.036993 -0.000000
v -0.328504 -0.163383 -0.140361
v -0.381944 -0.056003 -0.163194
v -0.163194 -0.029753 -0.163194
v -0.082777 -0.545715 -0.082777
v -0.140361 -0.163383 -0.328504
v -0.163194 -0.056003 -0.381944
v -0.409722 -0.075587 -0.175347
v -0.257577 -0.152931 -0.257577
v -0.195561 -0.340526 -0.098631
v -0.352395 -0.173836 -0.000000
v -0.409722 -0.054545 -0.000000
v -0.299479 -0.039649 -0.151042
v -0.299479 -0.057462 -0.299479
v -0.151042 -0.039649 -0.299479
v -0.175347 -0.026420 -0.000000
v -0.088941 -0.559805 -0.000000
v -0.098631 -0.340526 -0.195561
v -0.175347 -0.075587 -0.409722
vt 0.250000 0.250000
vt 0.000000 0.500000
vt 0.000000 0.250000
vt 0.000000 0.000000
vt 0.250000 0.000000
vt 0.500000 0.000000
vt 0.500000 0.250000
vt 0.500000 0.500000
vt 0.250000 0.500000
vt 0.250000 0.750000
vt 0.500000 1.000000
vt 0.250000 1.000000
vt 0.000000 1.000000
vt 0.000000 0.750000
vt 0.500000 0.750000
vt 0.750000 0.250000
vt 0.750000 0.000000
vt 1.000000 0.000000
vt 1.000000 0.250000
vt 1.000000 0.500000
vt 0.750000 0.500000
vt 0.750000 0.750000
vt 1.000000 0.750000
vt 1.000000 1.000000
vt 0.750000 1.000000
vn 0.795900 -0.347800 0.495500
vn 0.796000 -0.347800 0.495500
vn 0.771000 -0.391600 0.502300
vn 0.888200 -0.419700 0.186900
vn 0.939300 -0.298200 0.169700
vn 0.191700 0.980500 0.043300
vn 0.192000 0.980400 0.043200
vn 0.191800 0.980500 0.043300
vn 0.168700 0.978600 0.117500
vn 0.451000 0.848600 0.276700
vn 0.451000 0.848600 0.276600
vn 0.561600 0.821500 0.098600
vn 0.027100 0.996900 0.073500
vn 0.027000 0.996900 0.073300
vn 0.027000 0.996900 0.073400
vn 0.083000 0.993100 0.083000
vn 0.082900 0.993100 0.083000
vn 0.073500 0.996900 0.027100
vn 0.073300 0.996900 0.027000
vn 0.021100 0.999600 0.021100
vn 0.021100 0.999600 0.021000
vn 0.780000 -0.599200 0.180300
vn 0.612500 -0.499800 0.612500
vn 0.252100 -0.544700 0.799900
vn 0.252100 -0.544600 0.799900
vn 0.399200 -0.901600 0.166900
vn 0.186900 -0.419700 0.888200
vn 0.502300 -0.391600 0.771000
vn 0.502200 -0.391600 0.771000
vn 0.495500 -0.347800 0.795900
vn 0.495500 -0.347800 0.796000
vn 0.169700 -0.298200 0.939300
vn 0.276700 0.848600 0.451000
vn 0.276600 0.848600 0.451000
vn 0.276700 0.848500 0.451000
vn 0.117500 0.978600 0.168700
vn 0.117400 0.978700 0.168700
vn 0.117400 0.978600 0.168700
vn 0.043300 0.980500 0.191700
vn 0.043200 0.980400 0.192000
vn 0.043300 0.980500 0.191800
vn 0.098600 0.821500 0.561600
vn -0.795900 -0.347800 0.495500
vn -0.796000 -0.347800 0.495500
vn -0.771000 -0.391600 0.502300
vn -0.771000 -0.391600 0.502200
vn -0.888200 -0.419700 0.186900
vn -0.888200 -0.419600 0.186900
vn -0.939300 -0.298200 0.169700
vn -0.191800 0.980500 0.043300
vn -0.191900 0.980500 0.043400
vn -0.168700 0.978600 0.117400
vn -0.451000 0.848600 0.276700
vn -0.451000 0.848600 0.276600
vn -0.561600 0.821500 0.098600
vn -0.026900 0.996900 0.073500
vn -0.027100 0.996900 0.073300
vn -0.027000 0.996900 0.073400
vn -0.083000 0.993100 0.083000
vn -0.073300 0.996900 0.027100
vn -0.073500 0.996900 0.026900
vn -0.073400 0.996900 0.027000
vn -0.021100 0.999600 0.021100
vn -0.780000 -0.599200 0.180300
vn -0.612500 -0.499800 0.612500
vn -0.612500 -0.499700 0.612500
vn -0.252100 -0.544700 0.799900
vn -0.252100 -0.544600 0.799900
vn -0.399200 -0.901600 0.166900
vn -0.399100 -0.901600 0.166900
vn -0.186900 -0.419600 0.888200
vn -0.186900 -0.419700 0.888200
vn -0.502300 -0.391600 0.771000
vn -0.502200 -0.391600 0.771000
vn -0.495400 -0.347800 0.796000
vn -0.495500 -0.347800 0.795900
vn -0.169700 -0.298200 0.939300
vn -0.276600 0.848600 0.451000
vn -0.276700 0.848600 0.451000
vn -0.117400 0.978600 0.168700
vn -0.043400 0.980500 0.191900
vn -0.043300 0.980500 0.191800
vn -0.098600 0.821500 0.561600
vn 0.795900 -0.347800 -0.495500
vn 0.796000 -0.347800 -0.495500
vn 0.771000 -0.391600 -0.502300
vn 0.771000 -0.391600 -0.502200
vn 0.888200 -0.419700 -0.186900
vn 0.888200 -0.419600 -0.186900
vn 0.939300 -0.298200 -0.169700
vn 0.191800 0.980500 -0.043300
vn 0.191900 0.980500 -0.043400
vn 0.168700 0.978600 -0.117400
vn 0.451000 0.848600 -0.276700
vn 0.451000 0.848600 -0.276600
vn 0.561600 0.821500 -0.098600
vn 0.026900 0.996900 -0.073500
vn 0.027100 0.996900 -0.073300
vn 0.027000 0.996900 -0.073400
vn 0.083000 0.993100 -0.083000
vn 0.073300 0.996900 -0.027100
vn 0.073500 0.996900 -0.026900
vn 0.073400 0.996900 -0.027000
vn 0.021100 0.999600 -0.021100
vn 0.780000 -0.599200 -0.180300
vn 0.612500 -0.499800 -0.612500
vn 0.612500 -0.499700 -0.612500
vn 0.252100 -0.544700 -0.799900
vn 0.252100 -0.544600 -0.799900
vn 0.399200 -0.901600 -0.166900
vn 0.399100 -0.901600 -0.166900
vn 0.186900 -0.419600 -0.888200
vn 0.186900 -0.419700 -0.888200
vn 0.502300 -0.391600 -0.771000
vn 0.502200 -0.391600 -0.771000
vn 0.495400 -0.347800 -0.796000
vn 0.495500 -0.347800 -0.795900
vn 0.169700 -0.298200 -0.939300
vn 0.276600 0.848600 -0.451000
vn 0.276700 0.848600 -0.451000
vn 0.117400 0.978600 -0.168700
vn 0.043400 0.980500 -0.191900
vn 0.043300 0.980500 -0.191800
vn 0.098600 0.821500 -0.561600
vn -0.795900 -0.347800 -0.495500
vn -0.796000 -0.347800 -0.495500
vn -0.771000 -0.391600 -0.502300
vn -0.888200 -0.419700 -0.186900
vn -0.939300 -0.298200 -0.169700
vn -0.191700 0.980500 -0.043300
vn -0.192000 0.980400 -0.043200
vn -0.191800 0.980500 -0.043300
vn -0.168700 0.978600 -0.117500
vn -0.451000 0.848600 -0.276700
vn -0.451000 0.848600 -0.276600
vn -0.561600 0.821500 -0.098600
vn -0.027100 0.996900 -0.073500
vn -0.027000 0.996900 -0.073300
vn -0.027000 0.996900 -0.073400
vn -0.083000 0.993100 -0.083000
vn -0.082900 0.993100 -0.083000
vn -0.073500 0.996900 -0.027100
vn -0.073300 0.996900 -0.027000
vn -0.021100 0.999600 -0.021100
vn -0.021100 0.999600 -0.021000
vn -0.780000 -0.599200 -0.180300
vn -0.612500 -0.499800 -0.612500
vn -0.252100 -0.544700 -0.799900
vn -0.252100 -0.544600 -0.799900
vn -0.399200 -0.901600 -0.166900
vn -0.186900 -0.419700 -0.888200
vn -0.502300 -0.391600 -0.771000
vn -0.502200 -0.391600 -0.771000
vn -0.495500 -0.347800 -0.795900
vn -0.495500 -0.347800 -0.796000
vn -0.169700 -0.298200 -0.939300
vn -0.276700 0.848600 -0.451000
vn -0.276600 0.848600 -0.451000
vn -0.276700 0.848500 -0.451000
vn -0.117500 0.978600 -0.168700
vn -0.117400 0.978700 -0.168700
vn -0.117400 0.978600 -0.168700
vn -0.043300 0.980500 -0.191700
vn -0.043200 0.980400 -0.192000
vn -0.043300 0.980500 -0.191800
vn -0.098600 0.821500 -0.561600
vn 0.771000 -0.391600 0.502200
vn 0.168700 0.978600 0.117400
vn 0.451000 0.848500 0.276700
vn 0.073400 0.996900 0.027000
vn 0.021000 0.999600 0.021100
vn 0.399100 -0.901600 0.166900
vn -0.021000 0.999600 0.021000
vn 0.021000 0.999600 -0.021000
vn -0.771000 -0.391600 -0.502200
vn -0.168700 0.978600 -0.117400
vn -0.451000 0.848500 -0.276700
vn -0.073400 0.996900 -0.027000
vn -0.021000 0.999600 -0.021100
vn -0.399100 -0.901600 -0.166900
usemtl b0b0b0
s 1
f 16/1/1 13/2/2 23/3/2
f 16/1/3 11/4/3 24/5/3
f 16/1/4 14/6/4 25/7/4
f 16/1/5 12/8/5 22/9/5
f 17/10/6 15/11/7 27/12/8
f 17/10/9 10/13/9 28/14/9
f 17/10/10 13/2/11 22/9/11
f 17/10/12 12/8/12 26/15/12
f 18/16/13 7/6/14 29/17/15
f 18/16/16 10/18/16 27/19/17
f 18/16/18 15/20/19 30/21/19
f 18/16/20 1/8/20 5/7/21
f 19/22/22 14/20/22 24/23/22
f 19/22/23 11/24/23 32/25/23
f 19/22/24 6/11/25 4/15/25
f 19/22/26 9/8/26 31/21/26
f 20/16/27 6/6/27 32/17/27
f 20/16/28 11/18/28 23/19/29
f 20/16/30 13/20/31 33/21/31
f 20/16/32 8/8/32 3/7/32
f 21/22/33 13/20/34 28/23/35
f 21/22/36 10/24/37 29/25/38
f 21/22/39 7/11/40 2/15/41
f 21/22/42 8/8/42 33/21/42
f 47/3/43 46/9/44 40/1/43
f 48/5/45 47/3/45 40/1/46
f 49/7/47 48/5/48 40/1/47
f 46/9/49 49/7/49 40/1/49
f 51/12/50 50/15/51 41/10/50
f 52/14/52 51/12/52 41/10/52
f 46/9/53 52/14/54 41/10/53
f 50/15/55 46/9/55 41/10/55
f 53/17/56 5/7/57 42/16/58
f 51/19/59 53/17/59 42/16/59
f 54/21/60 51/19/61 42/16/62
f 5/7/63 54/21/63 42/16/63
f 48/23/64 55/21/64 43/22/64
f 56/25/65 48/23/65 43/22/66
f 4/15/67 56/25/67 43/22/68
f 55/21/69 4/15/70 43/22/70
f 56/17/71 3/7/72 44/16/72
f 47/19/73 56/17/73 44/16/74
f 57/21/75 47/19/76 44/16/76
f 3/7/77 57/21/77 44/16/77
f 52/23/78 57/21/79 45/22/79
f 53/25/80 52/23/80 45/22/80
f 2/15/81 53/25/82 45/22/82
f 57/21/83 2/15/83 45/22/83
f 79/3/84 78/9/85 72/1/84
f 80/5/86 79/3/86 72/1/87
f 81/7/88 80/5/89 72/1/88
f 78/9/90 81/7/90 72/1/90
f 83/12/91 82/15/92 73/10/91
f 84/14/93 83/12/93 73/10/93
f 78/9/94 84/14/95 73/10/94
f 82/15/96 78/9/96 73/10/96
f 85/17/97 61/7/98 74/16/99
f 83/19/100 85/17/100 74/16/100
f 86/21/101 83/19/102 74/16/103
f 61/7/104 86/21/104 74/16/104
f 80/23/105 87/21/105 75/22/105
f 88/25/106 80/23/106 75/22/107
f 60/15/108 88/25/108 75/22/109
f 87/21/110 60/15/111 75/22/111
f 88/17/112 59/7/113 76/16/113
f 79/19/114 88/17/114 76/16/115
f 89/21/116 79/19/117 76/16/117
f 59/7/118 89/21/118 76/16/118
f 84/23/119 89/21/120 77/22/120
f 85/25/121 84/23/121 77/22/121
f 58/15/122 85/25/123 77/22/123
f 89/21/124 58/15/124 77/22/124
f 96/1/125 93/2/126 103/3/126
f 96/1/127 91/4/127 104/5/127
f 96/1/128 94/6/128 105/7/128
f 96/1/129 92/8/129 102/9/129
f 97/10/130 95/11/131 107/12/132
f 97/10/133 90/13/133 108/14/133
f 97/10/134 93/2/135 102/9/135
f 97/10/136 92/8/136 106/15/136
f 98/16/137 63/6/138 109/17/139
f 98/16/140 90/18/140 107/19/141
f 98/16/142 95/20/143 110/21/143
f 98/16/144 1/8/144 61/7/145
f 99/22/146 94/20/146 104/23/146
f 99/22/147 91/24/147 112/25/147
f 99/22/148 62/11/149 60/15/149
f 99/22/150 65/8/150 111/21/150
f 100/16/151 62/6/151 112/17/151
f 100/16/152 91/18/152 103/19/153
f 100/16/154 93/20/155 113/21/155
f 100/16/156 64/8/156 59/7/156
f 101/22/157 93/20/158 108/23/159
f 101/22/160 90/24/161 109/25/162
f 101/22/163 63/11/164 58/15/165
f 101/22/166 64/8/166 113/21/166
f 16/1/1 22/9/2 13/2/2
f 16/1/3 23/3/167 11/4/3
f 16/1/4 24/5/4 14/6/4
f 16/1/5 25/7/5 12/8/5
f 17/10/6 26/15/8 15/11/7
f 17/10/9 27/12/168 10/13/9
f 17/10/10 28/14/169 13/2/11
f 17/10/12 22/9/12 12/8/12
f 18/16/13 5/7/15 7/6/14
f 18/16/16 29/17/16 10/18/16
f 18/16/18 27/19/170 15/20/19
f 18/16/20 30/21/171 1/8/20
f 19/22/22 31/21/22 14/20/22
f 19/22/23 24/23/23 11/24/23
f 19/22/24 32/25/25 6/11/25
f 19/22/26 4/15/172 9/8/26
f 20/16/27 3/7/27 6/6/27
f 20/16/28 32/17/28 11/18/28
f 20/16/30 23/19/31 13/20/31
f 20/16/32 33/21/32 8/8/32
f 21/22/33 33/21/34 13/20/34
f 21/22/36 28/23/37 10/24/37
f 21/22/39 29/25/41 7/11/40
f 21/22/42 2/15/42 8/8/42
f 47/3/43 37/2/43 46/9/44
f 48/5/45 35/4/46 47/3/45
f 49/7/47 38/6/48 48/5/48
f 46/9/49 36/8/49 49/7/49
f 51/12/50 39/11/50 50/15/51
f 52/14/52 34/13/52 51/12/52
f 46/9/53 37/2/54 52/14/54
f 50/15/55 36/8/55 46/9/55
f 53/17/56 7/6/58 5/7/57
f 51/19/59 34/18/59 53/17/59
f 54/21/60 39/20/62 51/19/61
f 5/7/63 1/8/173 54/21/63
f 48/23/64 38/20/64 55/21/64
f 56/25/65 35/24/65 48/23/65
f 4/15/67 6/11/68 56/25/67
f 55/21/69 9/8/69 4/15/70
f 56/17/71 6/6/71 3/7/72
f 47/19/73 35/18/74 56/17/73
f 57/21/75 37/20/76 47/19/76
f 3/7/77 8/8/77 57/21/77
f 52/23/78 37/20/78 57/21/79
f 53/25/80 34/24/80 52/23/80
f 2/15/81 7/11/82 53/25/82
f 57/21/83 8/8/83 2/15/83
f 79/3/84 69/2/84 78/9/85
f 80/5/86 67/4/87 79/3/86
f 81/7/88 70/6/89 80/5/89
f 78/9/90 68/8/90 81/7/90
f 83/12/91 71/11/91 82/15/92
f 84/14/93 66/13/93 83/12/93
f 78/9/94 69/2/95 84/14/95
f 82/15/96 68/8/96 78/9/96
f 85/17/97 63/6/99 61/7/98
f 83/19/100 66/18/100 85/17/100
f 86/21/101 71/20/103 83/19/102
f 61/7/104 1/8/174 86/21/104
f 80/23/105 70/20/105 87/21/105
f 88/25/106 67/24/106 80/23/106
f 60/15/108 62/11/109 88/25/108
f 87/21/110 65/8/110 60/15/111
f 88/17/112 62/6/112 59/7/113
f 79/19/114 67/18/115 88/17/114
f 89/21/116 69/20/117 79/19/117
f 59/7/118 64/8/118 89/21/118
f 84/23/119 69/20/119 89/21/120
f 85/25/121 66/24/121 84/23/121
f 58/15/122 63/11/123 85/25/123
f 89/21/124 64/8/124 58/15/124
f 96/1/125 102/9/126 93/2/126
f 96/1/127 103/3/175 91/4/127
f 96/1/128 104/5/128 94/6/128
f 96/1/129 105/7/129 92/8/129
f 97/10/130 106/15/132 95/11/131
f 97/10/133 107/12/176 90/13/133
f 97/10/134 108/14/177 93/2/135
f 97/10/136 102/9/136 92/8/136
f 98/16/137 61/7/139 63/6/138
f 98/16/140 109/17/140 90/18/140
f 98/16/142 107/19/178 95/20/143
f 98/16/144 110/21/179 1/8/144
f 99/22/146 111/21/146 94/20/146
f 99/22/147 104/23/147 91/24/147
f 99/22/148 112/25/149 62/11/149
f 99/22/150 60/15/180 65/8/150
f 100/16/151 59/7/151 62/6/151
f 100/16/152 112/17/152 91/18/152
f 100/16/154 103/19/155 93/20/155
f 100/16/156 113/21/156 64/8/156
f 101/22/157 113/21/158 93/20/158
f 101/22/160 108/23/161 90/24/161
f 101/22/163 109/25/165 63/11/164
f 101/22/166 58/15/166 64/8/166
